<mxfile host="Electron" agent="Mozilla/5.0 (Windows NT 10.0; Win64; x64) AppleWebKit/537.36 (KHTML, like Gecko) draw.io/26.1.1 Chrome/132.0.6834.210 Electron/34.3.3 Safari/537.36" version="26.1.1">
  <diagram name="Page-1" id="94my3C780GVJJdSLGN0G">
    <mxGraphModel dx="1948" dy="828" grid="1" gridSize="10" guides="1" tooltips="1" connect="1" arrows="1" fold="1" page="1" pageScale="1" pageWidth="850" pageHeight="1100" math="0" shadow="0">
      <root>
        <mxCell id="0" />
        <mxCell id="1" parent="0" />
        <mxCell id="px0t784jbYdJUndPv900-31" value="" style="rounded=0;whiteSpace=wrap;html=1;" vertex="1" parent="1">
          <mxGeometry x="-70" y="180" width="670" height="360" as="geometry" />
        </mxCell>
        <mxCell id="px0t784jbYdJUndPv900-9" style="edgeStyle=orthogonalEdgeStyle;rounded=0;orthogonalLoop=1;jettySize=auto;html=1;" edge="1" parent="1" source="px0t784jbYdJUndPv900-2" target="px0t784jbYdJUndPv900-7">
          <mxGeometry relative="1" as="geometry" />
        </mxCell>
        <mxCell id="px0t784jbYdJUndPv900-2" value="" style="rounded=0;whiteSpace=wrap;html=1;" vertex="1" parent="1">
          <mxGeometry x="-10" y="250" width="186.5" height="200" as="geometry" />
        </mxCell>
        <mxCell id="px0t784jbYdJUndPv900-1" value="" style="sketch=0;aspect=fixed;pointerEvents=1;shadow=0;dashed=0;html=1;strokeColor=none;labelPosition=center;verticalLabelPosition=bottom;verticalAlign=top;align=center;fillColor=#00188D;shape=mxgraph.azure.file" vertex="1" parent="1">
          <mxGeometry x="59.75" y="330" width="47" height="50" as="geometry" />
        </mxCell>
        <mxCell id="px0t784jbYdJUndPv900-5" value="Data Source" style="text;html=1;align=center;verticalAlign=middle;whiteSpace=wrap;rounded=0;" vertex="1" parent="1">
          <mxGeometry x="50" y="260" width="90" height="30" as="geometry" />
        </mxCell>
        <mxCell id="px0t784jbYdJUndPv900-6" value="CSV File" style="text;html=1;align=center;verticalAlign=middle;whiteSpace=wrap;rounded=0;" vertex="1" parent="1">
          <mxGeometry x="53.25" y="420" width="60" height="30" as="geometry" />
        </mxCell>
        <mxCell id="px0t784jbYdJUndPv900-7" value="" style="image;aspect=fixed;html=1;points=[];align=center;fontSize=12;image=img/lib/azure2/storage/Data_Lake_Storage_Gen1.svg;" vertex="1" parent="1">
          <mxGeometry x="440" y="328" width="64" height="52" as="geometry" />
        </mxCell>
        <mxCell id="px0t784jbYdJUndPv900-10" value="ADLG2" style="text;html=1;align=center;verticalAlign=middle;whiteSpace=wrap;rounded=0;" vertex="1" parent="1">
          <mxGeometry x="402" y="400" width="140" height="30" as="geometry" />
        </mxCell>
        <mxCell id="px0t784jbYdJUndPv900-11" value="" style="strokeColor=#dddddd;shadow=1;strokeWidth=1;rounded=1;absoluteArcSize=1;arcSize=2;" vertex="1" parent="1">
          <mxGeometry x="250" y="310" width="110" height="44" as="geometry" />
        </mxCell>
        <mxCell id="px0t784jbYdJUndPv900-12" value="Scheduled&#xa;Tasks" style="sketch=0;dashed=0;connectable=0;html=1;fillColor=#757575;strokeColor=none;shape=mxgraph.gcp2.scheduled_tasks;part=1;labelPosition=right;verticalLabelPosition=middle;align=left;verticalAlign=middle;spacingLeft=5;fontSize=12;" vertex="1" parent="px0t784jbYdJUndPv900-11">
          <mxGeometry y="0.5" width="32" height="32" relative="1" as="geometry">
            <mxPoint x="5" y="-16" as="offset" />
          </mxGeometry>
        </mxCell>
        <mxCell id="px0t784jbYdJUndPv900-30" value="" style="shape=image;verticalLabelPosition=bottom;labelBackgroundColor=default;verticalAlign=top;aspect=fixed;imageAspect=0;image=data:image/jpeg,/9j/4AAQSkZJRgABAQAAAQABAAD/2wCEAAkGBw8PEBAQDw8SEBENDhEQEBAOERAQDhAQFRIWGBcVFRUYHykgGBolHRgVKDIhJSo3Li8uFx8zODMsNyk5LisBCgoKDg0OGxAQGysmHSEtNystKy0uMy0tLSstLS0rLSsxKy0tLS0uLSstKystKy8rLystKy01KystKy0wLS0rLf/AABEIAOEA4QMBEQACEQEDEQH/xAAcAAEAAQUBAQAAAAAAAAAAAAAAAgMEBQYHAQj/xABIEAACAQMABQUMBgYKAwAAAAAAAQIDBBEFBhIhMQdBUWFxEyIyNVJzgZGhsbKzFDRyksHRJEJUYnTSFiMzU4KDhKPC4WOi8P/EABoBAQACAwEAAAAAAAAAAAAAAAABAgMEBQb/xAA2EQEAAgECAgcECQQDAAAAAAAAAQIDBBExUQUSFCFBodETMlKBFSIzYWJxkeHwQrHB8SMkNP/aAAwDAQACEQMRAD8A7iAAAAAAAAAAAAAAAAAAAAAAAAAAAAAAAAAAAAAAAAAAAAjUmopyk1GMVluTSSXS2Ijcmdmt3+u9nSbUNus1z01iH3pYz6DZrpMk8e5rW1eOOHew9flEl+papdc6rfsUfxM0aKPGWGdbPhVay5Q7j+4peuf5lux15yjtluUPYco9ZeFbU5fZnKPvTInR15kay3JkLLlHoSaVahOln9aDVWK7dyfqRjto7RwlkrrKzxhuFleUq8FUozjUhLhKLyux9D6jVtWaztLaraLRvCuVWAAAAAAAAAAAAAAAAAAAAAAAADQOUfSUtunbJ4goKpNL9aTbUU+zGfT1HQ0dI2m7n6y87xRb6v6lu5oqtVqumqizTjCKb2eaUm+noJy6rqW6sQjFpevXrTLX9YNEzs6zpTal3qlCaWFKDzvxzPKe7qM+LJGSu8MGXHOO20sVJmRjU2wlBsDM6paenZXEXtPuNWSjWhzOL3bXbHj60Yc2KL1+/wAGbDkmlvudqOS6oAAAAAAAAAAAAAAAAAAAAAAAAcu5QX+my81T/E6mk+zcvV/afJl9Wdc7elbwo3G1CVGOzGUYuUZxXDhvTxuMObTWm3Wr4s2HU1ivVt4NW1s02r2v3SMXGEIKEFLwmk28vrbfuNjBi9nXZr5svtLbsG2ZmJBsCnJkCnUe59gJfQto/wCrh9iPuRxZ4u1HBVISAAAAAAAAAAAAAAAAAAAAAAANN1o1Sr3dw61OpTjFwjHE9vays9CNzDqK469WYaebT2yW60Sw75PLr++o/wC5+Rl7ZTlLF2O3OEXydXX99R/3P5R2ynKU9jtzhjNP6oV7Ki61SpTlFSjHENvazLtRfHqK3ttEMeTT2pXeZazJmdgU2wlSqPc+xhEvoi0/s6fm4+5HFni7UcFYhIAAAAAAAAAAAAAAAAAAAGua1azRs13OmlOvJZSfg049Mul9C/8Ans4NP7Tvng1s+f2fdHFzy+0xc1m3Vr1JZ5tpxguyK3I6FcVK8Ic+2W9uMrGVaXlS+8y+0KbypuvPy5feZG0J3lB15+XL7zG0G8oOvPy5feY2g3lTnVk9zk2uhttDY3lRkwlTkwKdTg+xgng75W8Cj5te5Hiul/fr83otP7qicdsqtC6lF8crnX5G3ptbkw2753ry9FL4otH3spF5Sa4PeelraLRFo4S0pjbuelkAAAAAAAAAAAAAAAEak1GLk9yim2+hJZYiNyZ2cV0heSr1Z1Z+FVk5Pq6F6Fheg7daxWsVjwcS1ptM2nxWsmWVU5MhKm2BBsJQbIFOTAhJhKm2B5Jbn1oEu+3KxGlF8VTSfqR4npefr1+b0emj6q2bONMtlFsrMpZPRtTMMeS/Yz0XRWXr4erP9M+TT1Fdrb812dRgAAAAAAAAAAAAAAAMTrXX7nZXMumk4ffaj+JlwRvkhizztjlx9s7DjqbZCUGwINhKDZApyYFOTCUGwPCBtmoWrM7qtC4qRcbahJTcpLCqyjvUY9KzxfDdjs1tTnrjrPf+zY0+Gb2ifB0u6rbcm+bguw8FrNR7bLNo4cI/J6LHTq12UGzUmWRFsrule6Jn30l0xz6n/wBnX6Gv/wAlq843/T/bX1UfViWUPRNIAAAAAAAAAAAAAAA1/Xv6hW7aXzYmxpvtY/ng19V9lP8APFyaTOo5am2BBsJZPV/QNe+qOFLEYwx3SrLOxBfi+r3GLLlrjjeWTFitknaG+WmpmjqSSqRncTXGUpySz1Ri0ses4efpqlZ2if09ZdPHoK7d/muP6NaL/ZF96f8AMa307H4vL1Zew05Qf0Z0V+xr70/5h9Ox+Ly9TsNeUPP6M6K/Y196f8w+nY/F5ep2CvKEqWgNGU3tRsoNrhtrbXqk2ilunu7ui3lC0aCvKF/WuHJKKSjFblGO5YONqtdkz9090cvVuY8VaKDZozLLsi2VmVkWysyld6Jf9Z/hfvR0+h5/7Pyn/DBqfc+bMnqXPAAAAAAAAAAAAAAAMVrTb90srmK49xlJdse+XuMuGdskSxZo3xzDjDZ13IU2wlHe9yWW9yXS+gDs2jrCNnb07eHFR2qklxnN+E/S/YkjyPS+stM9SPH+3J39Jhitf5xSPPtwA8bI3Tsi2VmUotlZlZFsrMpRbKzKUWysysi2VmUshoWOZSl0RS9b/wCjtdB03yWvyjb9f9NXVz9WIZc9K0AAAAAAAAAAAAAAADyUU0096aw10oDhml7GVtXq0JcaU3FN88eMX6Vh+k7VLdesWca9OpaarFssqr6Lf6Rb/wARS+ZEpf3Z/JanvR+btN94foR4TpL7f5Q9Jh91bnPZUWyu6yLZEylFsrMp2RbKzKyLZWZSi2VmU7ItlZlLxsrusz2i6OxTWeMu+fp4ew9f0Vg9lp43427/AE8nL1F+tf8AJdnSYAAAAAAAAAAAAAAAABrOuGqsb5KpTahXgsJyzsVI+TLHDnw+s2MGf2fdPBr58HtO+OLnN1qtpCm2na1H100qkX6Y5N6M+OfFozgyR4GjdAXsa9CTtK6Ua9JtunJJJTTbZF8tOrPfCa4r9aO6eLrN++/9CPD9J/b/ACh6HD7q2bOdMs2yLZWZS8hFyeIrL6iaY75J6tI3kmYrG8pu1qeQzN2HU/BKPa05ou1qeQyvYdT8Ep9rTm8dpV8hlewan4JT7bHzRdnV8h+wjsGp+CU+2x83n0Kr5D9hH0fqvglPtsfNd2ejJZTqbkv1eLfb1HQ0XRF5tFs/dEeHP8/uYMuqjbajLnpWgAAAAAAAAAAAAAAAAAAAAAxekX3/AKEea6U/9Hyhu4PcWjZzZlnRbK7pKdVxeYvD9DL4s98VutSdpLUi0bSqvSFXyvZH8jY+lNV8flHop2fHyRekKvl+yP5FfpTVfH5R6J7Pj5IvSNby/ZH8is9K6v4/KPRPZsfJn4PcuxHsKTvWJcyeL0sgAAAAAAAAAAAAAAAAAAAAAAAYnSfh/wCFHmelu7UfKG9p/cWbZy5lsItlZlKLZWZTs8W9pdLSFY61ojmme6N2fjZU1HZ2E+trf6z2Nej9NFOp1I/z+vFy5zXmd92BuaezKUVv2W0jyGpxRiy2xx4Ts6mO3WrEtlgty7Ee6pG1Yhx54vSyAAAAAAAAAAAAAAAAAAAAAAABa39rtrK8KPDrXQc7pDRTqK7196PP7vRnw5epO08GFmmnhrDXMzyt62pPVtG0uhG0xvCDZjmVkWyu6dnhCV7HSlRRxu+01vOpXpjUVp1e78/H0a86Wkzuno+ylOSnPwU87+Mn+Rl6O6PvmvGXL7vHv4zPp/dXPnisdWvH+zNHqXOAAAAAAAAAAAAAAAAAAAAAAAAABTq0Yz8KKfbxMObT480bZKxK1b2rwlZ1NEwfByj6mjmZOhMNvdmY8/382xXV2jjCk9D/APk/9f8As1p6BnwyeX7snbPw+aUNDx55t9iS/My06Cp/VeflG3qrOsnwhdUbGnDhHL6Zb2dDB0dp8PfWvfznvYL5724yuTdYgAAAAAAAAAAAAAAAAAAAAAAAAAeZA8c0B53VAed1QDuqA9VRASUgPQAAAAAAAAAAAAAAAAAAAAAAAABGUQKUoMCDgwPNhgeqDAkoMCpGLAmgPQAAAAAAAAAAAAAAAAAAAAAAAAAAAAAAAAAAAAAAAAAAAAAAAAAAAAAAAAAAAB4mBr2vt9Vt7KdSjN057dOO1HGUnJJ4yBT5O686ljGdScqknVq5lUk5Sffc7e8DZgAAAAAAAAADyTSWXuS3tvgkBbUdJW890K9Kbyo4hUhJ5ecLc+O5+oC4hUjLOzJPZezLDT2ZYTw+h4a9YEgAAAAAAAAAAAAAANW5SLipTsW6c5QbrU4twk4txecrK5gJcm/i6j9ut82QEOUvxfPztL40A5M/F8PO1fjYG1AAAAAAAAAAADC3eiqk44TjtRu53Ect4T2J9zzu8txz1ZAudDWM6Krbbi3Wrd1bi21tSpU1Pj++pejAGRAAAAADH6e0rGzt6lxOLkqeMRjucpSkopZ5t7W8DRrGppjSydSFxG2oKTiu5tw3rils99LiuLSAnfao6Tt4OrQ0hUrTgtpwUqsJSx5OZNSfU+IGX1C1qleKVGvju9KO0pJYVWGcN45pJtZ7UB5ykaXuLWjR+j1HTdWpKMpJRcsKOdza3egDOar1ZTsrWc5OUpW9NylJtyk3FZbb4sDKAc65ONNXVxc1IV686kY27koyxhS24LPqbAlyl2NyoTrO5zbyqUlG3x4MtnGc9qb9IFDU/Q+kKttSqUL/ALjS254pbLeMVHtb+tp+sDYOUvxfPztL40Bq2qml7920bSwoJyjOcqlxUw4Q2pZSWdyfbl9QF9pTR2naFOVd3ndO5ranClLekuLUXFRaXQBmNRNaZX0Z0q2O70kpbUVhVIZxtY5mnjPNvQF7rhrLDR9JNJTrVcqlB+Du4yl+6srt9qDXLHQelr+Kr3F9O3VRbUKcNpPZfBuEHFR9/SBbXtzpXQ84SqVndW85YzUcpJvycvMoSxnG9rt4AdA0RpKndUYV6T72os4fhRa3OL608oDUr/W65ubh2ejacVOMpRlWrY3bLxJxi9ySfO856AJ1dV9KzW1LS0lPHgwU4U89sWvhAw2j9Z7/AEfdfRr+TqQ2kpOeJSjGXCpCfGS58Poa3MDp4AAAAAAAADWeUfxdW+3R+dAC35L/AKh/qKn/ABA24DkNvL6LpvENy+nOGFw2Krxjs7/2AbByt/2Vt52fwAbPqj9Qs/4al8KAy4HK+Sj63W/hX8yAGz8p/wBQ/wA+n+IFbk38XUft1vmyAhyl+L5+dpfGgHJn4vh52r8YG0tAco5N47OkpxXCNGtH0KccANZ5fSdNRpT3wjXt6GHw2O9cl6XKXrA6wBhdc7VVbC6i14NGVRdUqffr3AavySXUnG6ot97CVOpHqc1JS+GIGN1H8b1u26+YB1QDlvK1FfSaD53btN9k3j3sDqEOC7EBIAAAAAAADWeUfxdW+3R+dAC35L/qH+oqf8QNuA49H9J00nDenfqSa540pZb9UGBsnK3/AGNt56fwAbLqhJOwtMfs9NelLDAzAHLOSf63W/hn8yAGzcp/1D/Pp/iBW5N/F1H7db5sgIcpfi+fnaXxoByZ+L4edq/GwNqA5TydeM6vmq/zIgR1uj9F0xCvLdCVW3uM/uRcVL4ZAdXTz6QMNrlcqlYXUm/Coypr7VTvF7ZAazyS2jVO5rPhUnTpx/wKTfxr1AYvUfxvW7br5gHVAOXcrf1ih/Dy+NgdPp+Cuxe4CQAAAAAAAGs8o/i6t9uj86AGp6n3Gk6Ft3W1pQubd1ZqVHhVjJYzKPPv3cM9gF9pLWrSdxF0aGjq1CU1sym4VZTSfHZbjFRfWwMlqHqlKzzXuEu7zjsxgmmqUHx3rc5Pq4ekDL63aCV/bukpKNSElUpSfgqaTWH1NNr1PmA0fQ2kNK6MzQlZ1KtNSbUNiclFt79ipBNYfHG/0AZmemdNXa2Ley+iKW51aze1FdK20vZFgYfkpji7r9Vu1/uRA3zWjRH021qUFJRk8ShJ8FOLys9T4ekDT9XL7SOjV9Fq6Pq1afdG4zpKUtjae/vopprn5nvYGxcoFrUrWM4Uqcqk3UptRgnKWFNZ3IByfWlSjYwhVpypzVSo3GcXGWHLduYGyAc41E0Pc0b+rUq0KlODp1kpzjiLbqRa39mQNo1w1bjpCkkmoVqWXSm+G/jGX7rwuzC7GGu6L05pOwgre5sKteNJbNOpT2pPZXBOUVJSXRweAKWkKOk9MyhCdB2dtCW0+65znpaeHN4zhYS38QN70Xo+nbUadCksQpRws8W+Lk+tvL9IGg6naMuKelKtSpQqwpt3OJzpzjB5nuxJrG8DpIHO+U3RFzcVqMqFCpVUaDTcI5Se09wHQqS71di9wEgAAAAAAANZ5R/F1b7dH50ALfkv+o/6ip7ogbcAAAALbSV9C3pVK1RpRpxcnnnfMl1t7vSBoXJJay/Sa7W57FJPplvlL3x9YHRgAAAAAAAAAAAAAAAAAAAAAAADFa0aJle2tS3jNQc3BqUk2sxmpYeOwC11K0RVsrZ0a2ztKtOWYNyi4vGGspP2AZ8AAAw2s30/ucPoGxtueJ902d0ccVtbuPvA1uOp19eSjLSV5tRi8qnS3/goxfWkwN10fY0renGlRgoQgsKK97fO+sC4AAAAAAAAAAAAAAAAAAAAAAAAAAAAAAAAAAAAAAAAAAAAAAAAAAAAAAAAAAAAAAAAAAAAAAAAAAAAAAAAAAAAAAAAAD//2Q==;" vertex="1" parent="1">
          <mxGeometry x="265" y="375" width="65" height="65" as="geometry" />
        </mxCell>
        <mxCell id="px0t784jbYdJUndPv900-32" value="Data Architecture" style="text;html=1;align=center;verticalAlign=middle;whiteSpace=wrap;rounded=0;fontSize=17;fontStyle=1" vertex="1" parent="1">
          <mxGeometry x="140" y="190" width="210" height="30" as="geometry" />
        </mxCell>
      </root>
    </mxGraphModel>
  </diagram>
</mxfile>
